<svg id="mermaid-svg" width="547.9362182617188" xmlns="http://www.w3.org/2000/svg" height="746" viewBox="-62.502464294433594 -8 547.9362182617188 746" role="graphics-document document" aria-roledescription="gitGraph" xmlns:xlink="http://www.w3.org/1999/xlink"><style>#mermaid-svg{font-family:"trebuchet ms",verdana,arial,sans-serif;font-size:16px;fill:#333;}#mermaid-svg .error-icon{fill:hsl(220.5882352941, 100%, 98.3333333333%);}#mermaid-svg .error-text{fill:rgb(8.5000000002, 5.7500000001, 0);stroke:rgb(8.5000000002, 5.7500000001, 0);}#mermaid-svg .edge-thickness-normal{stroke-width:2px;}#mermaid-svg .edge-thickness-thick{stroke-width:3.5px;}#mermaid-svg .edge-pattern-solid{stroke-dasharray:0;}#mermaid-svg .edge-pattern-dashed{stroke-dasharray:3;}#mermaid-svg .edge-pattern-dotted{stroke-dasharray:2;}#mermaid-svg .marker{fill:#0b0b0b;stroke:#0b0b0b;}#mermaid-svg .marker.cross{stroke:#0b0b0b;}#mermaid-svg svg{font-family:"trebuchet ms",verdana,arial,sans-serif;font-size:16px;}#mermaid-svg .commit-id,#mermaid-svg .commit-msg,#mermaid-svg .branch-label{fill:lightgrey;color:lightgrey;font-family:'trebuchet ms',verdana,arial,sans-serif;font-family:var(--mermaid-font-family);}#mermaid-svg .branch-label0{fill:#333;}#mermaid-svg .commit0{stroke:hsl(40.5882352941, 100%, 68.3333333333%);fill:hsl(40.5882352941, 100%, 68.3333333333%);}#mermaid-svg .commit-highlight0{stroke:rgb(0, 52.2500000001, 161.5000000002);fill:rgb(0, 52.2500000001, 161.5000000002);}#mermaid-svg .label0{fill:hsl(40.5882352941, 100%, 68.3333333333%);}#mermaid-svg .arrow0{stroke:hsl(40.5882352941, 100%, 68.3333333333%);}#mermaid-svg .branch-label1{fill:#333;}#mermaid-svg .commit1{stroke:hsl(-79.4117647059, 100%, 68.3333333333%);fill:hsl(-79.4117647059, 100%, 68.3333333333%);}#mermaid-svg .commit-highlight1{stroke:rgb(52.2500000001, 161.5000000002, 0);fill:rgb(52.2500000001, 161.5000000002, 0);}#mermaid-svg .label1{fill:hsl(-79.4117647059, 100%, 68.3333333333%);}#mermaid-svg .arrow1{stroke:hsl(-79.4117647059, 100%, 68.3333333333%);}#mermaid-svg .branch-label2{fill:#333;}#mermaid-svg .commit2{stroke:hsl(220.5882352941, 100%, 73.3333333333%);fill:hsl(220.5882352941, 100%, 73.3333333333%);}#mermaid-svg .commit-highlight2{stroke:rgb(136.0000000002, 92.0000000001, 0);fill:rgb(136.0000000002, 92.0000000001, 0);}#mermaid-svg .label2{fill:hsl(220.5882352941, 100%, 73.3333333333%);}#mermaid-svg .arrow2{stroke:hsl(220.5882352941, 100%, 73.3333333333%);}#mermaid-svg .branch-label3{fill:#333;}#mermaid-svg .commit3{stroke:hsl(10.5882352941, 100%, 68.3333333333%);fill:hsl(10.5882352941, 100%, 68.3333333333%);}#mermaid-svg .commit-highlight3{stroke:rgb(0, 133.0000000002, 161.5000000002);fill:rgb(0, 133.0000000002, 161.5000000002);}#mermaid-svg .label3{fill:hsl(10.5882352941, 100%, 68.3333333333%);}#mermaid-svg .arrow3{stroke:hsl(10.5882352941, 100%, 68.3333333333%);}#mermaid-svg .branch-label4{fill:#333;}#mermaid-svg .commit4{stroke:hsl(-19.4117647059, 100%, 68.3333333333%);fill:hsl(-19.4117647059, 100%, 68.3333333333%);}#mermaid-svg .commit-highlight4{stroke:rgb(0, 161.5000000002, 109.2500000001);fill:rgb(0, 161.5000000002, 109.2500000001);}#mermaid-svg .label4{fill:hsl(-19.4117647059, 100%, 68.3333333333%);}#mermaid-svg .arrow4{stroke:hsl(-19.4117647059, 100%, 68.3333333333%);}#mermaid-svg .branch-label5{fill:#333;}#mermaid-svg .commit5{stroke:hsl(-49.4117647059, 100%, 68.3333333333%);fill:hsl(-49.4117647059, 100%, 68.3333333333%);}#mermaid-svg .commit-highlight5{stroke:rgb(0, 161.5000000002, 28.5);fill:rgb(0, 161.5000000002, 28.5);}#mermaid-svg .label5{fill:hsl(-49.4117647059, 100%, 68.3333333333%);}#mermaid-svg .arrow5{stroke:hsl(-49.4117647059, 100%, 68.3333333333%);}#mermaid-svg .branch-label6{fill:#333;}#mermaid-svg .commit6{stroke:hsl(100.5882352941, 100%, 68.3333333333%);fill:hsl(100.5882352941, 100%, 68.3333333333%);}#mermaid-svg .commit-highlight6{stroke:rgb(109.2500000001, 0, 161.5000000002);fill:rgb(109.2500000001, 0, 161.5000000002);}#mermaid-svg .label6{fill:hsl(100.5882352941, 100%, 68.3333333333%);}#mermaid-svg .arrow6{stroke:hsl(100.5882352941, 100%, 68.3333333333%);}#mermaid-svg .branch-label7{fill:#333;}#mermaid-svg .commit7{stroke:hsl(160.5882352941, 100%, 68.3333333333%);fill:hsl(160.5882352941, 100%, 68.3333333333%);}#mermaid-svg .commit-highlight7{stroke:rgb(161.5000000002, 0, 52.2500000001);fill:rgb(161.5000000002, 0, 52.2500000001);}#mermaid-svg .label7{fill:hsl(160.5882352941, 100%, 68.3333333333%);}#mermaid-svg .arrow7{stroke:hsl(160.5882352941, 100%, 68.3333333333%);}#mermaid-svg .branch{stroke-width:1;stroke:#0b0b0b;stroke-dasharray:2;}#mermaid-svg .commit-label{font-size:10px;fill:rgb(11.0000000001, 34.0000000002, 0);}#mermaid-svg .commit-label-bkg{font-size:10px;fill:hsl(-79.4117647059, 100%, 93.3333333333%);opacity:0.5;}#mermaid-svg .tag-label{font-size:10px;fill:#333;}#mermaid-svg .tag-label-bkg{fill:#fff4dd;stroke:hsl(40.5882352941, 60%, 83.3333333333%);}#mermaid-svg .tag-hole{fill:#333;}#mermaid-svg .commit-merge{stroke:#fff4dd;fill:#fff4dd;}#mermaid-svg .commit-reverse{stroke:#fff4dd;fill:#fff4dd;stroke-width:3;}#mermaid-svg .commit-highlight-inner{stroke:#fff4dd;fill:#fff4dd;}#mermaid-svg .arrow{stroke-width:8;stroke-linecap:round;fill:none;}#mermaid-svg .gitTitleText{text-anchor:middle;font-size:18px;fill:#333;}#mermaid-svg :root{--mermaid-font-family:"trebuchet ms",verdana,arial,sans-serif;}</style><g></g><g class="commit-bullets"></g><g class="commit-labels"></g><g><line x1="0" y1="30" x2="0" y2="730" class="branch branch0"></line><rect class="branchLabelBkg label0" rx="4" ry="4" x="-27.5" y="0" width="53" height="23"></rect><g class="branchLabel"><g class="label branch-label0" transform="translate(-22.5, 0)"><text><tspan xml:space="preserve" dy="1em" x="0" class="row">main</tspan></text></g></g><line x1="107.5" y1="30" x2="107.5" y2="730" class="branch branch1"></line><rect class="branchLabelBkg label1" rx="4" ry="4" x="85.55859375" y="0" width="41.8828125" height="23"></rect><g class="branchLabel"><g class="label branch-label1" transform="translate(90.55859375, 0)"><text><tspan xml:space="preserve" dy="1em" x="0" class="row">fail</tspan></text></g></g><line x1="209.44140625" y1="30" x2="209.44140625" y2="730" class="branch branch2"></line><rect class="branchLabelBkg label2" rx="4" ry="4" x="157.33203125" y="0" width="102.21875" height="23"></rect><g class="branchLabel"><g class="label branch-label2" transform="translate(162.33203125, 0)"><text><tspan xml:space="preserve" dy="1em" x="0" class="row">flag_format</tspan></text></g></g><line x1="341.55078125" y1="30" x2="341.55078125" y2="730" class="branch branch3"></line><rect class="branchLabelBkg label3" rx="4" ry="4" x="317.11328125" y="0" width="46.875" height="23"></rect><g class="branchLabel"><g class="label branch-label3" transform="translate(322.11328125, 0)"><text><tspan xml:space="preserve" dy="1em" x="0" class="row">crt1</tspan></text></g></g><line x1="445.98828125" y1="30" x2="445.98828125" y2="730" class="branch branch4"></line><rect class="branchLabelBkg label4" rx="4" ry="4" x="417.54296875" y="0" width="54.890625" height="23"></rect><g class="branchLabel"><g class="label branch-label4" transform="translate(422.54296875, 0)"><text><tspan xml:space="preserve" dy="1em" x="0" class="row">sum1</tspan></text></g></g></g><g class="commit-arrows"><path d="M 341.55078125 240 L 341.55078125 290" class="arrow arrow3"></path><path d="M 445.98828125 490 L 445.98828125 540" class="arrow arrow4"></path><path d="M 0 40 L 189.44140625 40 A 20 20, 0, 0, 1, 209.44140625 60 L 209.44140625 90" class="arrow arrow2"></path><path d="M 209.44140625 90 L 209.44140625 140" class="arrow arrow2"></path><path d="M 0 40 L 0 190" class="arrow arrow0"></path><path d="M 209.44140625 140 L 209.44140625 170 A 20 20, 0, 0, 1, 189.44140625 190 L 0 190" class="arrow arrow2"></path><path d="M 0 40 L 87.5 40 A 20 20, 0, 0, 1, 107.5 60 L 107.5 190" class="arrow arrow1"></path><path d="M 209.44140625 140 L 209.44140625 170 A 20 20, 0, 0, 1, 189.44140625 190 L 107.5 190" class="arrow arrow2"></path><path d="M 107.5 190 L 321.55078125 190 A 20 20, 0, 0, 1, 341.55078125 210 L 341.55078125 240" class="arrow arrow3"></path><path d="M 341.55078125 290 L 341.55078125 340" class="arrow arrow3"></path><path d="M 0 190 L 0 340" class="arrow arrow0"></path><path d="M 341.55078125 290 L 180.775390625 290 A 10 10, 0, 0, 0, 170.775390625 300 L 170.775390625 330 A 10 10, 0, 0, 1, 160.775390625 340 L 0 340" class="arrow arrow3"></path><path d="M 107.5 190 L 107.5 390" class="arrow arrow1"></path><path d="M 341.55078125 340 L 341.55078125 370 A 20 20, 0, 0, 1, 321.55078125 390 L 107.5 390" class="arrow arrow3"></path><path d="M 107.5 390 L 425.98828125 390 A 20 20, 0, 0, 1, 445.98828125 410 L 445.98828125 440" class="arrow arrow4"></path><path d="M 445.98828125 440 L 445.98828125 490" class="arrow arrow4"></path><path d="M 445.98828125 540 L 445.98828125 590" class="arrow arrow4"></path><path d="M 0 340 L 0 590" class="arrow arrow0"></path><path d="M 445.98828125 540 L 232.994140625 540 A 10 10, 0, 0, 0, 222.994140625 550 L 222.994140625 580 A 10 10, 0, 0, 1, 212.994140625 590 L 0 590" class="arrow arrow4"></path><path d="M 107.5 390 L 107.5 640" class="arrow arrow1"></path><path d="M 445.98828125 590 L 445.98828125 620 A 20 20, 0, 0, 1, 425.98828125 640 L 107.5 640" class="arrow arrow4"></path><path d="M 0 590 L 0 690" class="arrow arrow0"></path><path d="M 107.5 640 L 107.5 670 A 20 20, 0, 0, 1, 87.5 690 L 0 690" class="arrow arrow1"></path></g><g class="commit-bullets"><circle cx="0" cy="40" r="10" class="commit 0-f242360 commit0"></circle><circle cx="209.44140625" cy="90" r="10" class="commit 1-fadcae4 commit2"></circle><circle cx="209.44140625" cy="140" r="10" class="commit 2-ced15ab commit2"></circle><circle cx="0" cy="190" r="9" class="commit 3-5d6b34e commit0"></circle><circle cx="0" cy="190" r="6" class="commit commit-merge 3-5d6b34e commit0"></circle><circle cx="107.5" cy="190" r="9" class="commit 4-17d4cf6 commit1"></circle><circle cx="107.5" cy="190" r="6" class="commit commit-merge 4-17d4cf6 commit1"></circle><circle cx="341.55078125" cy="240" r="10" class="commit 5-4216618 commit3"></circle><circle cx="341.55078125" cy="290" r="10" class="commit 2 commit3"></circle><circle cx="341.55078125" cy="340" r="10" class="commit 7-aa15258 commit3"></circle><circle cx="0" cy="340" r="10" class="commit 8-c87f42d commit-cherry-pick"></circle><circle cx="-3" cy="342" r="2.75" fill="#fff" class="commit 8-c87f42d commit-cherry-pick"></circle><circle cx="3" cy="342" r="2.75" fill="#fff" class="commit 8-c87f42d commit-cherry-pick"></circle><line x1="3" y1="341" x2="0" y2="335" stroke="#fff" class="commit 8-c87f42d commit-cherry-pick"></line><line x1="-3" y1="341" x2="0" y2="335" stroke="#fff" class="commit 8-c87f42d commit-cherry-pick"></line><circle cx="107.5" cy="390" r="9" class="commit 9-01faf72 commit1"></circle><circle cx="107.5" cy="390" r="6" class="commit commit-merge 9-01faf72 commit1"></circle><circle cx="445.98828125" cy="440" r="10" class="commit 10-f978c43 commit4"></circle><circle cx="445.98828125" cy="490" r="10" class="commit 11-52cf2ff commit4"></circle><circle cx="445.98828125" cy="540" r="10" class="commit 3 commit4"></circle><circle cx="445.98828125" cy="590" r="10" class="commit 13-998477f commit4"></circle><circle cx="0" cy="590" r="10" class="commit 14-db396a4 commit-cherry-pick"></circle><circle cx="-3" cy="592" r="2.75" fill="#fff" class="commit 14-db396a4 commit-cherry-pick"></circle><circle cx="3" cy="592" r="2.75" fill="#fff" class="commit 14-db396a4 commit-cherry-pick"></circle><line x1="3" y1="591" x2="0" y2="585" stroke="#fff" class="commit 14-db396a4 commit-cherry-pick"></line><line x1="-3" y1="591" x2="0" y2="585" stroke="#fff" class="commit 14-db396a4 commit-cherry-pick"></line><circle cx="107.5" cy="640" r="9" class="commit 15-acbcb4d commit1"></circle><circle cx="107.5" cy="640" r="6" class="commit commit-merge 15-acbcb4d commit1"></circle><circle cx="0" cy="690" r="9" class="commit 16-be09ad0 commit0"></circle><circle cx="0" cy="690" r="6" class="commit commit-merge 16-be09ad0 commit0"></circle></g><g class="commit-labels"><g><rect class="commit-label-bkg" x="-65.078125" y="28" width="48.078125" height="15" transform="rotate(-45, 0, 40)"></rect><text x="-60.078125" y="39" class="commit-label" transform="rotate(-45, 0, 40)">0-f242360</text></g><g><rect class="commit-label-bkg" x="143.3447265625" y="78" width="49.0966796875" height="15" transform="rotate(-45, 209.44140625, 90)"></rect><text x="148.3447265625" y="89" class="commit-label" transform="rotate(-45, 209.44140625, 90)">1-fadcae4</text></g><g><rect class="commit-label-bkg" x="141.806640625" y="128" width="50.634765625" height="15" transform="rotate(-45, 209.44140625, 140)"></rect><text x="146.806640625" y="139" class="commit-label" transform="rotate(-45, 209.44140625, 140)">2-ced15ab</text></g><g><rect class="commit-label-bkg" x="274.92578125" y="228" width="49.625" height="15" transform="rotate(-45, 341.55078125, 240)"></rect><text x="279.92578125" y="239" class="commit-label" transform="rotate(-45, 341.55078125, 240)">5-4216618</text></g><polygon class="tag-label-bkg" points="
            341.55078125,232
            341.55078125,228
            351.55078125,222.5
            360.80078125,222.5
            360.80078125,237.5
            351.55078125,237.5" transform="translate(12,12) rotate(45, 341.55078125,230)"></polygon><circle cx="343.55078125" cy="230" r="1.5" class="tag-hole" transform="translate(12,12) rotate(45, 341.55078125,230)"></circle><text y="233" class="tag-label" x="346.55078125" transform="translate(14,14) rotate(45, 341.55078125,230)">1</text><g><rect class="commit-label-bkg" x="315.30078125" y="278" width="9.25" height="15" transform="rotate(-45, 341.55078125, 290)"></rect><text x="320.30078125" y="289" class="commit-label" transform="rotate(-45, 341.55078125, 290)">2</text></g><polygon class="tag-label-bkg" points="
            341.55078125,282
            341.55078125,278
            351.55078125,272.5
            360.80078125,272.5
            360.80078125,287.5
            351.55078125,287.5" transform="translate(12,12) rotate(45, 341.55078125,280)"></polygon><circle cx="343.55078125" cy="280" r="1.5" class="tag-hole" transform="translate(12,12) rotate(45, 341.55078125,280)"></circle><text y="283" class="tag-label" x="346.55078125" transform="translate(14,14) rotate(45, 341.55078125,280)">2</text><g><rect class="commit-label-bkg" x="274.89453125" y="328" width="49.65625" height="15" transform="rotate(-45, 341.55078125, 340)"></rect><text x="279.89453125" y="339" class="commit-label" transform="rotate(-45, 341.55078125, 340)">7-aa15258</text></g><polygon class="tag-label-bkg" points="
            341.55078125,332
            341.55078125,328
            351.55078125,322.5
            360.80078125,322.5
            360.80078125,337.5
            351.55078125,337.5" transform="translate(12,12) rotate(45, 341.55078125,330)"></polygon><circle cx="343.55078125" cy="330" r="1.5" class="tag-hole" transform="translate(12,12) rotate(45, 341.55078125,330)"></circle><text y="333" class="tag-label" x="346.55078125" transform="translate(14,14) rotate(45, 341.55078125,330)">3</text><polygon class="tag-label-bkg" points="
            0,332
            0,328
            10,322.5
            73.59375,322.5
            73.59375,337.5
            10,337.5" transform="translate(12,12) rotate(45, 0,330)"></polygon><circle cx="2" cy="330" r="1.5" class="tag-hole" transform="translate(12,12) rotate(45, 0,330)"></circle><text y="333" class="tag-label" x="5" transform="translate(14,14) rotate(45, 0,330)">cherry-pick:2</text><g><rect class="commit-label-bkg" x="375.95703125" y="428" width="53.03125" height="15" transform="rotate(-45, 445.98828125, 440)"></rect><text x="380.95703125" y="439" class="commit-label" transform="rotate(-45, 445.98828125, 440)">10-f978c43</text></g><polygon class="tag-label-bkg" points="
            445.98828125,432
            445.98828125,428
            455.98828125,422.5
            465.23828125,422.5
            465.23828125,437.5
            455.98828125,437.5" transform="translate(12,12) rotate(45, 445.98828125,430)"></polygon><circle cx="447.98828125" cy="430" r="1.5" class="tag-hole" transform="translate(12,12) rotate(45, 445.98828125,430)"></circle><text y="433" class="tag-label" x="450.98828125" transform="translate(14,14) rotate(45, 445.98828125,430)">1</text><g><rect class="commit-label-bkg" x="378.751953125" y="478" width="50.236328125" height="15" transform="rotate(-45, 445.98828125, 490)"></rect><text x="383.751953125" y="489" class="commit-label" transform="rotate(-45, 445.98828125, 490)">11-52cf2ff</text></g><polygon class="tag-label-bkg" points="
            445.98828125,482
            445.98828125,478
            455.98828125,472.5
            465.23828125,472.5
            465.23828125,487.5
            455.98828125,487.5" transform="translate(12,12) rotate(45, 445.98828125,480)"></polygon><circle cx="447.98828125" cy="480" r="1.5" class="tag-hole" transform="translate(12,12) rotate(45, 445.98828125,480)"></circle><text y="483" class="tag-label" x="450.98828125" transform="translate(14,14) rotate(45, 445.98828125,480)">2</text><g><rect class="commit-label-bkg" x="419.73828125" y="528" width="9.25" height="15" transform="rotate(-45, 445.98828125, 540)"></rect><text x="424.73828125" y="539" class="commit-label" transform="rotate(-45, 445.98828125, 540)">3</text></g><polygon class="tag-label-bkg" points="
            445.98828125,532
            445.98828125,528
            455.98828125,522.5
            465.23828125,522.5
            465.23828125,537.5
            455.98828125,537.5" transform="translate(12,12) rotate(45, 445.98828125,530)"></polygon><circle cx="447.98828125" cy="530" r="1.5" class="tag-hole" transform="translate(12,12) rotate(45, 445.98828125,530)"></circle><text y="533" class="tag-label" x="450.98828125" transform="translate(14,14) rotate(45, 445.98828125,530)">3</text><g><rect class="commit-label-bkg" x="375.36328125" y="578" width="53.625" height="15" transform="rotate(-45, 445.98828125, 590)"></rect><text x="380.36328125" y="589" class="commit-label" transform="rotate(-45, 445.98828125, 590)">13-998477f</text></g><polygon class="tag-label-bkg" points="
            445.98828125,582
            445.98828125,578
            455.98828125,572.5
            465.98828125,572.5
            465.98828125,587.5
            455.98828125,587.5" transform="translate(12,12) rotate(45, 445.98828125,580)"></polygon><circle cx="447.98828125" cy="580" r="1.5" class="tag-hole" transform="translate(12,12) rotate(45, 445.98828125,580)"></circle><text y="583" class="tag-label" x="450.98828125" transform="translate(14,14) rotate(45, 445.98828125,580)">4</text><polygon class="tag-label-bkg" points="
            0,582
            0,578
            10,572.5
            73.59375,572.5
            73.59375,587.5
            10,587.5" transform="translate(12,12) rotate(45, 0,580)"></polygon><circle cx="2" cy="580" r="1.5" class="tag-hole" transform="translate(12,12) rotate(45, 0,580)"></circle><text y="583" class="tag-label" x="5" transform="translate(14,14) rotate(45, 0,580)">cherry-pick:3</text></g><style>@import url("https://cdnjs.cloudflare.com/ajax/libs/font-awesome/6.4.0/css/all.min.css");</style></svg>